<svg width="11" height="16" viewBox="0 0 11 16" fill="none" xmlns="http://www.w3.org/2000/svg">
<g id="Group">
<path id="Vector" d="M5.33377 0C2.38691 0 0 2.38691 0 5.33377C0 7.77016 1.28656 10.3889 2.55229 12.4177C3.81802 14.4465 5.08375 15.8867 5.08375 15.8867C5.14755 15.9583 5.23871 16 5.33377 16C5.42883 16 5.51998 15.9583 5.58379 15.8867C5.58379 15.8867 6.85082 14.4165 8.11524 12.376C9.37967 10.3355 10.6675 7.72329 10.6675 5.33377C10.6675 2.38691 8.28062 0 5.33377 0ZM5.33377 0.666721C7.92122 0.666721 10.0008 2.74632 10.0008 5.33377C10.0008 7.47847 8.78848 10.0282 7.5527 12.0218C6.51746 13.6925 5.64108 14.7681 5.33377 15.1366C5.02385 14.7707 4.14747 13.7186 3.11484 12.0635C1.88036 10.0842 0.666721 7.53056 0.666721 5.33377C0.666721 2.74632 2.74632 0.666721 5.33377 0.666721ZM5.33377 3.33361C4.04851 3.33361 3.00024 4.38187 3.00024 5.66713C3.00024 6.95239 4.04851 8.00065 5.33377 8.00065C6.61903 8.00065 7.66729 6.95239 7.66729 5.66713C7.66729 4.38187 6.61903 3.33361 5.33377 3.33361ZM5.33377 4.00033C6.25832 4.00033 7.00057 4.74257 7.00057 5.66713C7.00057 6.59168 6.25832 7.33393 5.33377 7.33393C4.40921 7.33393 3.66697 6.59168 3.66697 5.66713C3.66697 4.74257 4.40921 4.00033 5.33377 4.00033Z" fill="#9893A3"/>
</g>
</svg>
