<svg width="16" height="16" viewBox="0 0 16 16" fill="none" xmlns="http://www.w3.org/2000/svg">
<g id="Group">
<path id="Vector" d="M2.88889 0C1.30136 0 0 1.30136 0 2.88889V13.1111C0 14.6986 1.30136 16 2.88889 16H13.1111C14.6986 16 16 14.6986 16 13.1111V2.88889C16 1.30136 14.6986 0 13.1111 0H2.88889ZM2.88889 1.33333H13.1111C13.9778 1.33333 14.6667 2.02219 14.6667 2.88889V3.55556H1.33333V2.88889C1.33333 2.0222 2.0222 1.33333 2.88889 1.33333H2.88889ZM1.33333 4.88889H14.6667V13.1111C14.6667 13.9778 13.9778 14.6667 13.1111 14.6667H2.88889C2.02219 14.6667 1.33333 13.9778 1.33333 13.1111L1.33333 4.88889ZM4 7.11111C3.50908 7.11111 3.11111 7.50908 3.11111 8C3.11111 8.49092 3.50908 8.88889 4 8.88889C4.49092 8.88889 4.88889 8.49092 4.88889 8C4.88889 7.50908 4.49092 7.11111 4 7.11111ZM8 7.11111C7.50908 7.11111 7.11111 7.50908 7.11111 8C7.11111 8.49092 7.50908 8.88889 8 8.88889C8.49092 8.88889 8.88889 8.49092 8.88889 8C8.88889 7.50908 8.49092 7.11111 8 7.11111ZM12 7.11111C11.5091 7.11111 11.1111 7.50908 11.1111 8C11.1111 8.49092 11.5091 8.88889 12 8.88889C12.4909 8.88889 12.8889 8.49092 12.8889 8C12.8889 7.50908 12.4909 7.11111 12 7.11111ZM8 10.2222C7.26362 10.2222 6.66667 10.8192 6.66667 11.5556C6.66667 12.2919 7.26362 12.8889 8 12.8889C8.73638 12.8889 9.33333 12.2919 9.33333 11.5556C9.33333 10.8192 8.73638 10.2222 8 10.2222ZM4 10.6667C3.50908 10.6667 3.11111 11.0646 3.11111 11.5556C3.11111 12.0465 3.50908 12.4444 4 12.4444C4.49092 12.4444 4.88889 12.0465 4.88889 11.5556C4.88889 11.0646 4.49092 10.6667 4 10.6667Z" fill="#9893A3"/>
</g>
</svg>
