<svg width="16" height="16" viewBox="0 0 16 16" fill="none" xmlns="http://www.w3.org/2000/svg">
<g id="Group">
<path id="Vector" d="M8 0C3.58584 0 0 3.58584 0 8C0 12.4142 3.58584 16 8 16C12.4142 16 16 12.4142 16 8C16 3.58584 12.4142 0 8 0ZM8 0.695652C12.0382 0.695652 15.3043 3.9618 15.3043 8C15.3043 12.0382 12.0382 15.3043 8 15.3043C3.9618 15.3043 0.695652 12.0382 0.695652 8C0.695652 3.9618 3.9618 0.695652 8 0.695652ZM7.65217 2.78261V3.75679C5.70435 3.86114 5.37364 5.32147 5.37364 5.98234C5.37364 9.2519 10.1393 7.51277 10.1393 9.98234C10.1393 10.2954 10.0698 11.6868 8.01766 11.6868C7.9481 11.6868 5.82582 11.6872 5.89538 9.49592H5.16508C5.23465 11.8264 6.71304 12.1389 7.65217 12.2432V13.2174H8.34783V12.2432C10.6783 12.0693 10.8349 10.3302 10.8349 9.98234C10.8349 6.8519 6.06929 8.45231 6.06929 6.05231C6.06929 5.25231 6.38288 4.31318 8.01766 4.31318C9.68723 4.31318 9.89592 5.63492 9.93071 6.22622H10.661C10.7306 5.25231 10.0351 3.82636 8.36549 3.75679V2.78261H7.65217Z" fill="#9893A3"/>
</g>
</svg>
