<svg width="32" height="32" viewBox="0 0 32 32" fill="none" xmlns="http://www.w3.org/2000/svg">
<rect width="32" height="32" rx="1" fill="white"/>
<path d="M11.9251 13.9778H9.19139V21.9836H11.9251V13.9778Z" fill="#9893A3"/>
<path d="M11.4655 10.2417C11.205 10.084 10.8988 9.99976 10.5856 9.99976C10.3766 9.99975 10.1697 10.0372 9.97672 10.1101C9.78375 10.1829 9.60855 10.2897 9.4612 10.4242C9.31384 10.5587 9.19724 10.7183 9.1181 10.8938C9.03895 11.0694 8.99883 11.2574 9.00003 11.4471C9.00183 11.7313 9.09635 12.0088 9.27166 12.2443C9.44698 12.4799 9.69524 12.663 9.98512 12.7707C10.275 12.8783 10.5935 12.9057 10.9005 12.8492C11.2074 12.7927 11.4891 12.655 11.71 12.4535C11.9308 12.2519 12.0809 11.9955 12.1413 11.7165C12.2018 11.4376 12.1699 11.1487 12.0496 10.8862C11.9293 10.6237 11.7261 10.3995 11.4655 10.2417Z" fill="#9893A3"/>
<path d="M16.3133 13.9774H13.6798L13.6707 21.9998H16.4045V18.0382C16.4045 16.9961 16.6232 15.9871 18.0447 15.9871C19.4662 15.9871 19.4663 17.1864 19.4663 18.1126V21.9832H22.2V17.5916C22.2 15.433 21.6441 13.7789 18.9104 13.7789C18.3894 13.7604 17.8726 13.8707 17.4152 14.0979C16.9578 14.3251 16.5769 14.6608 16.3133 15.0691V13.9774Z" fill="#9893A3"/>
</svg>
