<svg width="15" height="18" viewBox="0 0 15 18" fill="none" xmlns="http://www.w3.org/2000/svg">
<g id="Group">
<path id="Vector" d="M7.4 9.8C8.72548 9.8 9.8 8.72548 9.8 7.4C9.8 6.07452 8.72548 5 7.4 5C6.07452 5 5 6.07452 5 7.4C5 8.72548 6.07452 9.8 7.4 9.8Z" stroke="#9893A3" stroke-linecap="round" stroke-linejoin="round"/>
<path id="Vector_2" d="M7.4 1C5.70261 1 4.07475 1.67428 2.87452 2.87452C1.67428 4.07475 1 5.70261 1 7.4C1 8.9136 1.3216 9.904 2.2 11L7.4 17L12.6 11C13.4784 9.904 13.8 8.9136 13.8 7.4C13.8 5.70261 13.1257 4.07475 11.9255 2.87452C10.7253 1.67428 9.09739 1 7.4 1V1Z" stroke="#9893A3" stroke-linecap="round" stroke-linejoin="round"/>
</g>
</svg>
