<svg width="21" height="16" viewBox="0 0 21 16" fill="none" xmlns="http://www.w3.org/2000/svg">
<path id="&#226;&#128;&#157;" d="M15.4483 0C16.3883 0 17.1648 0.183906 17.7778 0.551723C18.3908 0.919539 18.9017 1.40996 19.3103 2.02299C19.7599 2.67688 20.046 3.41251 20.1686 4.22988C20.3321 5.04725 20.4138 5.78289 20.4138 6.43678C20.4138 8.43934 19.9029 10.2784 18.8812 11.954C17.8595 13.6296 16.2656 14.9783 14.0996 16L13.5479 14.8966C14.7739 14.3653 15.8365 13.5479 16.7356 12.4444C17.6347 11.341 18.1252 10.2171 18.2069 9.0728C18.2478 8.45977 18.2069 7.88761 18.0843 7.35632C17.3487 8.05109 16.4496 8.39847 15.387 8.39847C14.2018 8.39847 13.2005 8.03065 12.3831 7.29502C11.5658 6.55939 11.1571 5.53767 11.1571 4.22988C11.1571 2.96296 11.5658 1.94125 12.3831 1.16475C13.2414 0.388251 14.2631 0 15.4483 0ZM4.29119 0C5.23116 0 6.00766 0.183906 6.62069 0.551723C7.23372 0.919539 7.74457 1.40996 8.15326 2.02299C8.60281 2.67688 8.88889 3.41251 9.01149 4.22988C9.17497 5.04725 9.25671 5.78289 9.25671 6.43678C9.25671 8.43934 8.74585 10.2784 7.72414 11.954C6.70243 13.6296 5.10856 14.9783 2.94253 16L2.39081 14.8966C3.61686 14.3653 4.67944 13.5479 5.57854 12.4444C6.47765 11.341 6.96807 10.2171 7.04981 9.0728C7.09068 8.45977 7.04981 7.88761 6.9272 7.35632C6.19157 8.05109 5.29247 8.39847 4.22989 8.39847C3.0447 8.39847 2.04342 8.03065 1.22605 7.29502C0.408685 6.55939 0 5.53767 0 4.22988C0 2.96296 0.408685 1.94125 1.22605 1.16475C2.08429 0.388251 3.106 0 4.29119 0Z" fill="#9893A3" fill-opacity="0.3"/>
</svg>
