<svg width="82" height="13" viewBox="0 0 82 13" fill="none" xmlns="http://www.w3.org/2000/svg">
<g id="Group 438">
<g id="Group">
<path id="Vector" d="M13.653 4.95238H8.53929L6.82649 0L5.11368 4.95238L0 4.96538L4.0557 8.08724L2.60755 13L6.82649 10.1035L11.0454 13L9.59727 8.08786L13.653 4.95238Z" fill="#FDD300"/>
</g>
<g id="Group_2">
<path id="Vector_2" d="M30.5519 4.95238H25.4382L23.7254 0L22.0126 4.95238L16.8989 4.96538L20.9546 8.08724L19.5065 13L23.7254 10.1035L27.9444 13L26.4962 8.08786L30.5519 4.95238Z" fill="#FDD300"/>
</g>
<g id="Group_3">
<path id="Vector_3" d="M47.4518 4.95238H42.3381L40.6253 0L38.9125 4.95238L33.7988 4.96538L37.8545 8.08724L36.4064 13L40.6253 10.1035L44.8443 13L43.3961 8.08786L47.4518 4.95238Z" fill="#FDD300"/>
</g>
<g id="Group_4">
<path id="Vector_4" d="M64.3502 4.95238H59.2366L57.5238 0L55.8109 4.95238L50.6973 4.96538L54.753 8.08724L53.3048 13L57.5238 10.1035L61.7427 13L60.2945 8.08786L64.3502 4.95238Z" fill="#FDD300"/>
</g>
<g id="Group_5">
<path id="Vector_5" d="M81.2504 4.95238H76.1367L74.4239 0L72.7111 4.95238L67.5974 4.96538L71.6531 8.08724L70.205 13L74.4239 10.1035L78.6428 13L77.1947 8.08786L81.2504 4.95238Z" fill="#FDD300"/>
</g>
</g>
</svg>
