<svg width="16" height="16" viewBox="0 0 16 16" fill="none" xmlns="http://www.w3.org/2000/svg">
<g id="Group">
<path id="Vector" d="M8 0C3.58584 0 0 3.58584 0 8C0 12.4142 3.58584 16 8 16C12.4142 16 16 12.4142 16 8C16 3.58584 12.4142 0 8 0ZM8 0.695652C12.0382 0.695652 15.3043 3.9618 15.3043 8C15.3043 12.0382 12.0382 15.3043 8 15.3043C3.9618 15.3043 0.695652 12.0382 0.695652 8C0.695652 3.9618 3.9618 0.695652 8 0.695652ZM7.99457 1.73438C7.80273 1.73737 7.64955 1.89512 7.65217 2.08696V7.01698C7.23553 7.16429 6.95685 7.55808 6.95652 8C6.95684 8.15546 6.99189 8.30888 7.0591 8.44905L4.97147 10.5367C4.8806 10.6239 4.844 10.7535 4.87577 10.8754C4.90755 10.9973 5.00274 11.0925 5.12463 11.1242C5.24653 11.156 5.37607 11.1194 5.46332 11.0285L7.55095 8.9409C7.69112 9.00811 7.84454 9.04316 8 9.04348C8.5763 9.04348 9.04348 8.5763 9.04348 8C9.04286 7.55833 8.76424 7.16489 8.34783 7.01766V2.08696C8.34911 1.99294 8.31229 1.9024 8.24574 1.83598C8.17919 1.76956 8.08858 1.73291 7.99457 1.73438Z" fill="#9893A3"/>
</g>
</svg>
