<svg width="13" height="16" viewBox="0 0 13 16" fill="none" xmlns="http://www.w3.org/2000/svg">
<g id="Group">
<path id="Vector" d="M1.8 0C0.813 0 0 0.812999 0 1.8V14.2C0 15.187 0.813 16 1.8 16H11C11.987 16 12.8 15.187 12.8 14.2V1.8C12.8 0.812999 11.987 0 11 0H1.8ZM1.8 1.2H11C11.3386 1.2 11.6 1.4614 11.6 1.8V14.2C11.6 14.5386 11.3386 14.8 11 14.8H1.8C1.4614 14.8 1.2 14.5386 1.2 14.2V1.8C1.2 1.4614 1.4614 1.2 1.8 1.2ZM6.4 2.4C5.6268 2.4 5 3.0268 5 3.8C5 4.5732 5.6268 5.2 6.4 5.2C7.1732 5.2 7.8 4.5732 7.8 3.8C7.8 3.0268 7.1732 2.4 6.4 2.4ZM4.6 6C4.2688 6 4 6.2688 4 6.6V7C4 7.7732 5.0744 8.4 6.4 8.4C7.7256 8.4 8.8 7.7732 8.8 7V6.6C8.8 6.2688 8.5312 6 8.2 6H4.6ZM3.4 9.6C3.18362 9.59694 2.98235 9.71063 2.87327 9.89752C2.76418 10.0844 2.76418 10.3156 2.87327 10.5025C2.98235 10.6894 3.18362 10.8031 3.4 10.8H9.4C9.61638 10.8031 9.81765 10.6894 9.92673 10.5025C10.0358 10.3156 10.0358 10.0844 9.92673 9.89752C9.81765 9.71063 9.61638 9.59694 9.4 9.6H3.4ZM3.4 12C3.18362 11.9969 2.98235 12.1106 2.87327 12.2975C2.76418 12.4844 2.76418 12.7156 2.87327 12.9025C2.98235 13.0894 3.18362 13.2031 3.4 13.2H7.8C8.01638 13.2031 8.21765 13.0894 8.32673 12.9025C8.43582 12.7156 8.43582 12.4844 8.32673 12.2975C8.21765 12.1106 8.01638 11.9969 7.8 12H3.4Z" fill="#9893A3"/>
</g>
</svg>
