<svg width="19" height="16" viewBox="0 0 19 16" fill="none" xmlns="http://www.w3.org/2000/svg">
<g id="Group">
<path id="Vector" d="M7.27486 0C6.67685 0 6.18395 0.492898 6.18395 1.09091V2.18182H1.09304C0.495028 2.18182 0.00213029 2.67472 0.00213029 3.27273V8.65909C-0.000710095 8.68182 -0.000710095 8.70455 0.00213029 8.72727V14.9091C0.00213029 15.5071 0.495028 16 1.09304 16H17.093C17.6911 16 18.184 15.5071 18.184 14.9091V3.27273C18.184 2.67472 17.6911 2.18182 17.093 2.18182H12.0021V1.09091C12.0021 0.492898 11.5092 0 10.9112 0H7.27486ZM7.27486 0.727273H10.9112C11.1158 0.727273 11.2749 0.886364 11.2749 1.09091V2.18182H6.91122V1.09091C6.91122 0.886364 7.07031 0.727273 7.27486 0.727273ZM1.09304 2.90909H17.093C17.2976 2.90909 17.4567 3.06818 17.4567 3.27273V8.67045C17.4567 8.68182 17.4567 8.69318 17.4567 8.70455V8.72727C17.4567 8.93182 17.2976 9.09091 17.093 9.09091H1.09304C0.888494 9.09091 0.729403 8.93182 0.729403 8.72727C0.732245 8.70455 0.732245 8.68182 0.729403 8.65909V3.27273C0.729403 3.06818 0.888494 2.90909 1.09304 2.90909ZM9.09304 6.90909C8.69105 6.90909 8.36577 7.23438 8.36577 7.63636C8.36577 8.03835 8.69105 8.36364 9.09304 8.36364C9.49503 8.36364 9.82031 8.03835 9.82031 7.63636C9.82031 7.23438 9.49503 6.90909 9.09304 6.90909ZM0.729403 9.75C0.84446 9.79119 0.965199 9.81818 1.09304 9.81818H17.093C17.2209 9.81818 17.3416 9.79119 17.4567 9.75V14.9091C17.4567 15.1136 17.2976 15.2727 17.093 15.2727H1.09304C0.888494 15.2727 0.729403 15.1136 0.729403 14.9091V9.75Z" fill="#9893A3"/>
</g>
</svg>
