<svg width="42" height="42" viewBox="0 0 42 42" fill="none" xmlns="http://www.w3.org/2000/svg">
<g id="calendar-silhouette (1) 1">
<g id="Layer 93">
<path id="Vector" d="M33.25 8.75H31.5V5.25C31.5 4.78587 31.3156 4.34075 30.9874 4.01256C30.6593 3.68437 30.2141 3.5 29.75 3.5C29.2859 3.5 28.8407 3.68437 28.5126 4.01256C28.1844 4.34075 28 4.78587 28 5.25V8.75H14V5.25C14 4.78587 13.8156 4.34075 13.4874 4.01256C13.1592 3.68437 12.7141 3.5 12.25 3.5C11.7859 3.5 11.3408 3.68437 11.0126 4.01256C10.6844 4.34075 10.5 4.78587 10.5 5.25V8.75H8.75C7.35761 8.75 6.02226 9.30312 5.03769 10.2877C4.05312 11.2723 3.5 12.6076 3.5 14V15.75H38.5V14C38.5 12.6076 37.9469 11.2723 36.9623 10.2877C35.9777 9.30312 34.6424 8.75 33.25 8.75Z" fill="white"/>
<path id="Vector_2" d="M3.5 33.25C3.5 34.6424 4.05312 35.9777 5.03769 36.9623C6.02226 37.9469 7.35761 38.5 8.75 38.5H33.25C34.6424 38.5 35.9777 37.9469 36.9623 36.9623C37.9469 35.9777 38.5 34.6424 38.5 33.25V19.25H3.5V33.25Z" fill="white"/>
</g>
</g>
</svg>
