<svg width="42" height="42" viewBox="0 0 42 42" fill="none" xmlns="http://www.w3.org/2000/svg">
<g id="email (1) 1">
<path id="Vector" d="M40.614 9.36994C40.443 8.22658 39.8679 7.18234 38.9932 6.4265C38.1184 5.67067 37.0018 5.25328 35.8457 5.25H6.1543C4.99822 5.25328 3.88159 5.67067 3.00681 6.4265C2.13203 7.18234 1.55701 8.22658 1.38599 9.36994L21 22.0618L40.614 9.36994Z" fill="white"/>
<path id="Vector_2" d="M21.7127 24.7274C21.5003 24.8647 21.2529 24.9378 21 24.9378C20.7471 24.9378 20.4997 24.8647 20.2873 24.7274L1.3125 12.4503V31.9081C1.31389 33.1918 1.82445 34.4225 2.73217 35.3302C3.63988 36.238 4.87061 36.7485 6.15431 36.7499H35.8457C37.1294 36.7485 38.3601 36.238 39.2678 35.3302C40.1755 34.4225 40.6861 33.1918 40.6875 31.9081V12.449L21.7127 24.7274Z" fill="white"/>
</g>
</svg>
