<svg width="24" height="24" viewBox="0 0 24 24" fill="none" xmlns="http://www.w3.org/2000/svg">
<g id="whatsapp 1">
<path id="x30 8.Whatsapp" d="M12.001 1C5.92348 1 1.00098 5.9225 1.00098 12C1.00098 14.42 1.77098 16.6475 3.09098 18.4625L1.57848 22.45L5.95098 21.185C7.68348 22.34 9.77348 23 12.001 23C18.0785 23 23.001 18.0775 23.001 12C23.001 5.9225 18.0785 1 12.001 1ZM17.8585 16.565L16.676 17.72C15.4385 18.9575 12.166 17.61 9.27848 14.695C6.39098 11.8075 5.09848 8.535 6.25348 7.325L7.43598 6.1425C7.87598 5.7025 8.61848 5.7025 9.08598 6.1425L10.8185 7.875C11.4235 8.48 11.176 9.525 10.3785 9.7725C9.82848 9.965 9.44348 10.57 9.63598 11.12C9.93848 12.4125 11.616 14.0075 12.8535 14.31C13.4035 14.4475 14.036 14.1175 14.201 13.5675C14.4485 12.77 15.4935 12.5225 16.0985 13.1275L17.831 14.86C18.271 15.3275 18.271 16.07 17.8585 16.565Z" fill="#40189D"/>
</g>
</svg>
